<mxfile host="app.diagrams.net" modified="2023-11-13T09:04:47.846Z" agent="Mozilla/5.0 (Macintosh; Intel Mac OS X 10_15_7) AppleWebKit/537.36 (KHTML, like Gecko) Chrome/119.0.0.0 Safari/537.36" version="22.1.0" etag="j0ci972k4bTjG8taRL-k" type="github">
  <diagram name="Page-1" id="E4vy5wTLeTCXwH2n4dVF">
    <mxGraphModel>
      <root>
        <mxCell id="0" />
        <mxCell id="1" parent="0" />
      </root>
    </mxGraphModel>
  </diagram>
</mxfile>
